<svg xmlns="http://www.w3.org/2000/svg" viewBox="0 0 240 240" fill="currentColor">
  <title>InShot</title>
  <path d="M43.76 30.73a2.53 2.53 0 0 1 2.62-2.43c4.29 0 8.58-.09 12.87 0 1.23-.08 1.86 1.07 2.56 1.87-.22 3-.08 6-.08 9.07 0 1.47 0 3 0 4.43 22.24.13 44.48 0 66.72.07a29.5 29.5 0 0 1 22.76 11.53 29.16 29.16 0 0 1 5.07 10.14c1.79 6.44.74 13.18 1.12 19.77-.12 24.71 0 49.43 0 74.14-6 .18-12 0-18 .08q0-28.59 0-57.19c-.07-10.11.14-20.24-.11-30.35a11.57 11.57 0 0 0-11.89-10.17c-36.05.05-72.09-.07-108.14.06-8.8-.16-17.61 0-26.41-.08a2.73 2.73 0 0 1-2.54-3c0-4.41 0-8.82 0-13.22.65-.71 1.31-1.7 2.4-1.66 4.33-.09 8.68 0 13 0 .01-4.32-.1-8.64 0-12.97Z" />
  <path d="M103.6 80.23a41 41 0 0 1 16.53-3.09 42.37 42.37 0 0 1 31.1 14.22 43.77 43.77 0 0 1 10.23 21.41 43.11 43.11 0 0 1-4.2 26 42.4 42.4 0 1 1-53.66-58.58Zm15 14.9a24.38 24.38 0 0 0-16.9 41 24.39 24.39 0 1 0 16.9-41Z" />
  <path d="M43.72 79.72c6-.17 12 0 18-.08.07 7.4 0 14.81.06 22.21-.07 21 0 41.93 0 62.9a27.17 27.17 0 0 0 .16 3.09 11.72 11.72 0 0 0 6.51 8.39c2.51 1.38 5.44 1.1 8.19 1.09h131.11a2.8 2.8 0 0 1 3.07 3c0 4.11.05 8.23 0 12.34a2.68 2.68 0 0 1-3 2.65c-4.18 0-8.35 0-12.52 0h-.41q-8.79 0-17.57 0-51.79 0-103.58 0a30.48 30.48 0 0 1-11.94-2.32 29.7 29.7 0 0 1-18-25.23c-.22-6.7 0-13.4-.13-20.1q.14-27.89 0-55.8c.07-3.92-.03-7.98 0-12.03Z" />
</svg>