<svg xmlns="http://www.w3.org/2000/svg" viewBox="0 0 219.42 92.38" fill="currentColor">
  <title>VN Video Editor</title>
  <path d="M120.82.06c11.23,0,22.47.08,33.7-.06a7.86,7.86,0,0,1,6.76,3.07C170,13.58,179,23.89,187.9,34.24c5.51,6.39,10.93,12.85,16.46,19.22.6.68,1,2,2.24,1.65,1.4-.45,1-1.88,1-2.92q0-17.92,0-35.84a6.79,6.79,0,0,0-2.26-5.28c-2.81-2.64-5.5-5.41-8.25-8.11-.64-.63-1.33-1.31-.84-2.24.4-.74,1.3-.64,2-.65h19.13c1.87,0,2.56.75,1.63,2.55A11,11,0,0,1,218.44,4c-4.53,6.33-4.83,13.48-4.74,21,.24,21,0,42.07.15,63.1,0,3.3-1,4.32-4.24,4.23-7.36-.21-14.73-.14-22.1,0a6,6,0,0,1-5.36-2.62c-9.8-12.53-20.31-24.49-30.48-36.71-6.66-8-13.15-16.18-20-24.07-1.53-1.77-3.19-3.44-4.85-5.09-.41-.4-1.11-.87-1.57-.78-1,.18-.71,1.17-.71,1.86V77.13c0,3.3,2.8,4.94,5,6.58,2.43,1.8,4.35,4.07,6.56,6.05.51.45,1.34,1,.94,1.82s-1.28.63-2,.63H115.62c-1.81,0-2.65-.65-1.68-2.51a2,2,0,0,1,.2-.31c5.42-7.52,5.56-16.07,5.42-24.9-.3-17.91-.25-35.84,0-53.76.07-4.4-2.73-6.38-5.2-8.88-.86-.86-1.72-.25-2.6.45a88.88,88.88,0,0,0-10.36,9.61c-3.45,3.73-4,8.77-5.55,13.29-5,14.66-11.28,28.82-15.8,43.64-2.1,6.88-4.83,13.57-7,20.42-.71,2.21-1.8,3-4,3-9.23-.06-18.47-.08-27.71,0-2.28,0-3.4-1-4.12-3-2-5.59-3.88-11.29-6.31-16.72-7.66-17.09-13-35.07-20.35-52.25C8,14.2,6.72,7,.78,2.61a1.48,1.48,0,0,1-.61-2C.61-.13,1.48,0,2.22,0H49.4c.93,0,2.24-.36,2.59.84.31,1-.69,1.76-1.46,2.41-4.49,3.83-4.74,4-2,9.15,5.27,9.93,8.26,20.73,12.37,31.09,3.47,8.75,6.54,17.66,10.52,26.21.38.81.7,1.73,1.68,1.78,1.22.06,1.11-1.11,1.37-1.88,4.62-13.37,9.12-26.79,13.93-40.1,1.37-3.8,3.21-7.43,4.47-11.3,1.68-5.17,1.58-6.26-3-9.31-2.42-1.62-4.2-3.84-6.3-5.76-.72-.66-1.72-1.4-1.11-2.48S84.25,0,85.22,0H120.8Z" transform="translate(0 0.1)"/>
</svg>
